<svg xmlns="http://www.w3.org/2000/svg" viewBox="0 0 55 44"><path fill="currentColor" d="M49.5 2.75H19.25C17.7031 2.75 16.5 4.03906 16.5 5.5V8.59375C15.5547 8.42188 14.6953 8.25 13.75 8.25V5.5C13.75 2.49219 16.1562 0 19.25 0H49.5C52.5078 0 55 2.49219 55 5.5V30.25C55 33.3438 52.5078 35.75 49.5 35.75H48.125H34.375H33H28.875C28.4453 34.8047 27.9297 33.8594 27.2422 33H33V28.875C33 26.6406 34.8047 24.75 37.125 24.75H45.375C47.6094 24.75 49.5 26.6406 49.5 28.875V33C50.9609 33 52.25 31.7969 52.25 30.25V5.5C52.25 4.03906 50.9609 2.75 49.5 2.75ZM46.75 33V28.875C46.75 28.1875 46.0625 27.5 45.375 27.5H37.125C36.3516 27.5 35.75 28.1875 35.75 28.875V33H46.75ZM19.25 19.25C19.25 17.3594 18.1328 15.5547 16.5 14.5234C14.7812 13.5781 12.6328 13.5781 11 14.5234C9.28125 15.5547 8.25 17.3594 8.25 19.25C8.25 21.2266 9.28125 23.0312 11 24.0625C12.6328 25.0078 14.7812 25.0078 16.5 24.0625C18.1328 23.0312 19.25 21.2266 19.25 19.25ZM5.5 19.25C5.5 16.3281 7.04688 13.6641 9.625 12.1172C12.1172 10.6562 15.2969 10.6562 17.875 12.1172C20.3672 13.6641 22 16.3281 22 19.25C22 22.2578 20.3672 24.9219 17.875 26.4688C15.2969 27.9297 12.1172 27.9297 9.625 26.4688C7.04688 24.9219 5.5 22.2578 5.5 19.25ZM2.75 41.25H24.6641C24.4922 36.6953 20.625 33 15.9844 33H11.4297C6.78906 33 2.92188 36.6953 2.75 41.25ZM0 41.7656C0 35.4062 5.07031 30.25 11.4297 30.25H15.9844C22.3438 30.25 27.5 35.4062 27.5 41.7656C27.5 42.9688 26.4688 44 25.1797 44H2.23438C0.945312 44 0 43.0547 0 41.7656Z"/></svg>
