<svg xmlns="http://www.w3.org/2000/svg" viewBox="0 0 384 512"><!-- Font Awesome Pro Light style mobile-screen icon. Hand-drawn equivalent
  used pending licensed FA SVG drop-in; kept in same style as the other
  icons (currentColor fill, 384×512 viewBox). --><path fill="currentColor" d="M80 32C62.3 32 48 46.3 48 64V448c0 17.7 14.3 32 32 32H304c17.7 0 32-14.3 32-32V64c0-17.7-14.3-32-32-32H80zM16 64C16 28.7 44.7 0 80 0H304c35.3 0 64 28.7 64 64V448c0 35.3-28.7 64-64 64H80c-35.3 0-64-28.7-64-64V64zm152 384h48c8.8 0 16 7.2 16 16s-7.2 16-16 16H168c-8.8 0-16-7.2-16-16s7.2-16 16-16z"/></svg>
